<?xml version="1.0" encoding="UTF-8" standalone="no"?>
<!-- Created with Inkscape (http://www.inkscape.org/) -->

<svg
   width="2816"
   height="1536"
   viewBox="0 0 745.06667 406.40031"
   version="1.1"
   id="svg1"
   xml:space="preserve"
   xmlns="http://www.w3.org/2000/svg"
   xmlns:svg="http://www.w3.org/2000/svg"><defs
     id="defs1" /><g
     id="layer1"
     transform="translate(118.9082,-36.6468)"><path
       style="fill:#000000;stroke:#000000;stroke-width:1.05833;stroke-linecap:round;stroke-linejoin:round;stroke-dasharray:none;stroke-opacity:1;paint-order:markers stroke fill;shape-rendering:geometricPrecision;text-rendering:geometricPrecision"
       d="m 154.06298,321.84737 c -0.90051,-0.28543 -2.28034,-1.0166 -3.09264,-1.63877 -2.23255,-1.71 -19.01477,-17.50211 -19.66202,-18.502 -1.56233,-2.41355 -2.35045,-5.2986 -2.10592,-7.70895 0.13144,-1.29566 4.50359,-18.94899 8.334,-33.64995 0.56874,-2.18281 3.13694,-12.30312 5.70713,-22.48958 4.64264,-18.40031 6.50367,-25.68847 8.24243,-32.27917 0.49911,-1.89177 1.7395,-6.75954 2.75646,-10.81726 2.06057,-8.22196 2.54645,-9.3869 4.68516,-11.23334 l 1.39155,-1.20137 0.006,-3.32297 c 0.008,-4.69398 0.73864,-6.12707 4.15724,-8.1563 0.98454,-0.5844 5.41946,-3.23681 9.85541,-5.89424 9.11553,-5.46082 9.76532,-5.79501 11.28308,-5.80309 2.18135,-0.0116 3.38224,0.90998 6.37066,4.88899 l 1.19229,1.5875 2.02245,0.14204 c 2.5996,0.18258 4.17443,0.96272 5.9873,2.96601 l 1.37748,1.52215 h 51.61674 c 50.55258,0 51.62002,-0.0104 51.77692,-0.50476 0.26305,-0.82881 2.45827,-2.67149 3.98915,-3.34851 0.92569,-0.40939 2.04282,-0.65784 3.1683,-0.70464 l 1.73845,-0.0723 1.87309,-2.45935 c 1.03021,-1.35264 2.27986,-2.76959 2.77699,-3.14877 1.07547,-0.8203 3.00648,-1.08713 4.44108,-0.61367 0.53644,0.17705 4.68776,2.54591 9.22512,5.26414 4.53734,2.71823 9.08317,5.4346 10.10182,6.03638 3.75124,2.21608 4.3642,3.36764 4.36896,8.20808 l 0.003,3.38194 1.44888,1.27067 c 0.79687,0.69887 1.75311,1.78983 2.12498,2.42437 0.46103,0.7867 1.59136,4.75902 3.55343,12.48766 1.58253,6.23368 3.4888,13.71522 4.23617,16.62563 0.74736,2.91042 2.95994,11.60198 4.91685,19.31459 1.95691,7.7126 4.39926,17.29713 5.42748,21.29895 1.0282,4.00183 2.98413,11.68136 4.3465,17.06563 1.36236,5.38427 3.08067,12.14022 3.81844,15.0132 1.46677,5.71172 1.62708,7.45236 0.93321,10.13277 -0.81243,3.13852 -1.71376,4.27035 -7.91882,9.94429 -1.0146,0.92776 -3.75304,3.47382 -6.08542,5.65795 -7.00384,6.55866 -7.6014,7.06189 -9.36524,7.88731 -2.83298,1.3257 -6.42557,1.27797 -9.48801,-0.12607 -1.24061,-0.5688 -6.03952,-5.13723 -10.53561,-10.02964 -1.70627,-1.85666 -24.52645,-25.71104 -37.69743,-39.40585 -3.14899,-3.27422 -6.23068,-6.51211 -6.84819,-7.19532 -1.41867,-1.56961 -3.1833,-2.69735 -5.06756,-3.23858 -1.31681,-0.37824 -4.68786,-0.41533 -32.01458,-0.35224 l -30.54282,0.0705 -1.5875,0.76809 c -1.71727,0.83089 -3.34512,2.39692 -12.56178,12.08477 -2.68888,2.82634 -7.80857,8.17373 -11.37708,11.88309 -11.57295,12.02971 -12.99058,13.5096 -21.29236,22.2276 -10.18321,10.69374 -11.8006,12.29711 -13.04333,12.93008 -2.77645,1.41414 -6.11534,1.71656 -8.96805,0.81229 z m 7.19426,-3.22505 c 0.90709,-0.46332 2.25025,-1.66318 4.19055,-3.74359 1.57054,-1.68397 2.81527,-3.15691 2.76606,-3.27319 -0.0492,-0.11631 -2.05404,-2.06269 -4.45514,-4.3253 -22.85135,-21.53349 -21.16804,-19.88963 -21.16193,-20.66568 0.003,-0.33126 0.29205,-2.68587 0.64318,-5.23248 1.24486,-9.02837 2.71388,-20.04699 4.12715,-30.95625 0.44305,-3.41974 1.15414,-8.83709 1.58025,-12.03854 0.42611,-3.20146 0.96036,-7.24959 1.18722,-8.99584 0.22685,-1.74625 0.60102,-4.42515 0.8315,-5.95312 0.51401,-3.40787 0.83709,-6.18638 0.7338,-6.31057 -0.0948,-0.11403 -0.18762,0.23821 -2.3589,8.9564 -0.96043,3.8563 -1.97204,7.78536 -2.24805,8.73125 -0.27599,0.94589 -2.25343,8.62542 -4.39434,17.06563 -5.60997,22.11676 -7.58744,29.88968 -8.78412,34.52812 -1.8419,7.13941 -1.98014,7.94478 -1.6605,9.67388 0.62993,3.40762 1.02591,3.86591 12.56441,14.54164 7.66353,7.09048 8.69887,7.95821 10.13325,8.49264 1.57041,0.58513 4.66667,0.34206 6.30561,-0.495 z m 192.68179,0.0968 c 0.92528,-0.47424 18.02482,-16.07108 20.08439,-18.31935 0.95057,-1.0377 1.7377,-3.14468 1.86439,-4.99054 0.1044,-1.52173 -0.16608,-2.84187 -2.30492,-11.24906 -3.5859,-14.09514 -9.54548,-37.4141 -11.52906,-45.11146 -0.95626,-3.71078 -2.56437,-10.00999 -3.57362,-13.99824 -1.00923,-3.98825 -1.91098,-7.322 -2.0039,-7.40833 -0.20339,-0.18903 -0.0446,1.45438 0.53469,5.53157 0.23776,1.67349 0.72721,5.24537 1.08768,7.9375 0.36049,2.69214 0.77004,5.6687 0.91011,6.61459 0.1401,0.94588 0.60987,4.45823 1.04392,7.80521 2.1459,16.54671 3.76256,28.71973 3.98822,30.0302 0.46254,2.68607 1.3303,9.72233 1.3303,10.78686 0,1.04574 -0.0905,1.13964 -11.70781,12.1498 -6.4393,6.10272 -12.24307,11.58531 -12.89728,12.1835 l -1.18946,1.08762 3.32198,3.35101 c 2.80903,2.83355 3.54422,3.43019 4.76133,3.86394 1.89847,0.67657 4.67045,0.55965 6.27904,-0.26482 z M 173.98888,305.92218 c 1.89119,-1.92815 4.55589,-4.69635 5.92153,-6.15156 1.36562,-1.45521 8.67839,-9.11958 16.25052,-17.03195 7.57216,-7.91236 15.09985,-15.81482 16.72817,-17.56102 4.2318,-4.53807 5.96241,-5.75605 9.48082,-6.67248 1.35924,-0.35404 5.45661,-0.40643 31.78595,-0.40643 h 30.22555 l 2.06418,0.65509 c 2.81786,0.89429 4.23648,1.9294 8.05312,5.87604 1.7993,1.86061 5.00287,5.17063 7.11904,7.35559 3.89869,4.02543 15.84502,16.51582 22.60092,23.63022 2.03187,2.13972 5.86978,6.15209 8.52871,8.91646 l 4.83441,5.02608 0.86119,-0.86119 c 0.6335,-0.63349 0.79198,-0.95721 0.59939,-1.22436 -0.14398,-0.19974 -4.19084,-5.22679 -8.99303,-11.17124 -9.09952,-11.26395 -20.12399,-24.94258 -30.73508,-38.13459 -6.36852,-7.91752 -7.94345,-9.52226 -10.58654,-10.78692 -3.09782,-1.48224 -2.17445,-1.44386 -34.8402,-1.4481 -33.23722,-0.004 -31.62379,-0.0811 -34.9632,1.66397 -2.27304,1.18781 -4.54938,3.59181 -10.94735,11.56129 -3.09589,3.8563 -9.16167,11.41677 -13.47953,16.80104 -4.31784,5.38427 -10.6493,13.2424 -14.06986,17.4625 -3.42056,4.2201 -7.42897,9.16996 -8.90759,10.99968 l -2.68841,3.32674 0.65773,0.84045 c 0.36177,0.46223 0.74848,0.84042 0.85937,0.84042 0.11091,0 1.74897,-1.57758 3.64019,-3.50573 z m -5.27259,-2.77812 c 4.14007,-5.11464 12.43669,-15.3888 16.71865,-20.70365 2.40342,-2.98318 6.19543,-7.68615 8.42666,-10.45104 2.23123,-2.7649 7.33496,-9.10173 11.3416,-14.08186 4.00666,-4.98012 7.96771,-9.687 8.80234,-10.45972 1.70347,-1.57711 4.39613,-3.08925 6.77087,-3.80236 1.48233,-0.44514 3.62077,-0.48233 32.27919,-0.56132 34.39367,-0.0948 33.08618,-0.15745 37.04167,1.77513 2.34005,1.1433 4.35954,2.74702 6.10314,4.84666 1.07763,1.29766 6.46962,7.96009 21.35336,26.38451 3.46789,4.29286 7.63855,9.46285 9.26814,11.48885 2.76228,3.43426 14.43265,17.87898 14.64085,18.12133 0.0516,0.06 0.83842,-0.59536 1.7485,-1.45642 0.91012,-0.86106 4.68696,-4.42251 8.39301,-7.91435 3.70604,-3.49181 7.66495,-7.24175 8.79761,-8.33316 l 2.05935,-1.98437 -0.25349,-1.7198 c -0.13941,-0.94588 -0.49411,-3.56526 -0.78822,-5.82083 -0.29411,-2.25557 -0.89302,-6.83948 -1.33091,-10.18646 -0.43786,-3.34698 -1.27482,-9.77635 -1.85986,-14.2875 -0.58508,-4.51114 -1.59629,-12.01208 -2.24713,-16.66875 -0.65088,-4.65666 -1.7253,-12.51479 -2.38766,-17.4625 -4.57179,-34.15183 -4.23862,-32.35777 -6.35222,-34.20736 -0.61733,-0.54022 -3.488,-2.22409 -6.37929,-3.74193 -2.89126,-1.51784 -7.81669,-4.12098 -10.94539,-5.78475 -13.67118,-7.27005 -13.65279,-7.26136 -15.6428,-7.40374 -3.30435,-0.23642 -5.25476,1.06698 -6.65022,4.44418 -1.58218,3.82906 -7.79203,19.94688 -10.39564,26.98214 -1.23658,3.34139 -2.46753,5.85788 -3.45472,7.0626 -1.51241,1.84571 -4.41783,3.60206 -7.11599,4.30169 -1.42026,0.36827 -63.00457,0.38273 -64.9423,0.0152 -2.03078,-0.38512 -4.54723,-1.68495 -6.2176,-3.21156 -1.35043,-1.23422 -2.5654,-3.25891 -3.86937,-6.44818 -0.82452,-2.01658 -1.60695,-4.03907 -4.09432,-10.58333 -1.54869,-4.07459 -3.27063,-8.53943 -3.82649,-9.92188 -0.55589,-1.38245 -1.6342,-4.11353 -2.39628,-6.06907 -2.11611,-5.43005 -3.76322,-6.84795 -7.63322,-6.57106 -1.75522,0.12559 -2.14222,0.29629 -9.19514,4.05561 -8.35531,4.45353 -9.84711,5.2469 -17.13696,9.11369 -5.69058,3.01847 -7.20452,4.13385 -8.08791,5.9587 -0.57624,1.19035 -1.8922,10.01791 -5.02809,33.7288 -0.58701,4.43838 -1.47759,11.04635 -1.97914,14.68437 -1.43946,10.44196 -1.90143,13.92389 -3.17688,23.94479 -1.26195,9.91496 -3.24514,24.36337 -3.47059,25.28476 -0.10763,0.43987 0.96279,1.57324 5.49767,5.82083 3.09724,2.90103 7.80606,7.32843 10.46409,9.83867 2.658,2.51023 4.88455,4.56406 4.94786,4.56406 0.0633,0 1.05479,-1.16086 2.20327,-2.57969 z m 8.23783,-55.27221 c -0.28271,-0.34046 -0.37648,-1.90787 -0.42347,-7.07761 l -0.0604,-6.64029 -6.5542,-0.0658 c -6.30674,-0.0633 -6.57172,-0.0869 -7.01725,-0.62462 -0.41233,-0.49766 -0.46302,-1.24772 -0.46302,-6.85022 0,-5.60251 0.0507,-6.35257 0.46302,-6.85023 0.44558,-0.5378 0.7103,-0.56132 7.02974,-0.62462 l 6.56672,-0.0658 -0.0251,-6.35 c -0.0214,-5.3935 0.0378,-6.43967 0.3936,-6.94531 0.41563,-0.59073 0.47058,-0.59531 7.13573,-0.59531 6.64109,0 6.72153,0.007 7.12875,0.58803 0.34533,0.49302 0.41187,1.62598 0.41187,7.01146 v 6.42342 h 6.59958 c 6.51989,0 6.60455,0.007 7.01146,0.58804 0.34462,0.49201 0.41187,1.61064 0.41187,6.84986 0,5.57435 -0.0508,6.32317 -0.46302,6.82066 -0.44577,0.53803 -0.70943,0.56129 -7.0776,0.62462 l -6.61458,0.0658 0.0841,6.43513 c 0.0724,5.53424 0.0251,6.52507 -0.33682,7.0776 l -0.42097,0.64248 h -6.70838 c -5.91582,0 -6.7513,-0.0517 -7.07152,-0.43731 z m 11.6441,-9.09712 c -0.0305,-6.00513 0.0103,-6.67256 0.43672,-7.14375 0.44349,-0.49003 0.84614,-0.51974 7.04395,-0.51974 h 6.57356 v -4.49791 -4.49792 h -6.5276 c -5.7027,0 -6.58874,-0.0553 -7.01146,-0.43788 -0.444,-0.40183 -0.48385,-0.97911 -0.48385,-7.01146 v -6.57358 h -4.6302 -4.63021 v 6.59569 c 0,5.6433 -0.06,6.65572 -0.41577,7.01146 -0.35573,0.35573 -1.36816,0.41577 -7.01146,0.41577 h -6.59569 v 4.49792 4.49791 h 6.57357 c 6.11648,0 6.60514,0.0349 7.02739,0.50146 0.40352,0.44587 0.4535,1.23777 0.45082,7.14375 l -0.003,6.64229 h 4.61844 4.61843 z m 120.90695,3.35103 c -2.79683,-1.15042 -4.66786,-3.1992 -5.55709,-6.08503 -1.37719,-4.46946 0.67987,-9.07209 5.00356,-11.19525 1.34334,-0.65967 1.80853,-0.74546 4.03209,-0.74368 3.0389,0.002 4.43087,0.5662 6.49539,2.63072 3.95869,3.9587 3.87852,9.68497 -0.18944,13.53228 -2.61631,2.4744 -6.49817,3.21271 -9.78451,1.86096 z m 5.21129,-2.57871 c 1.42909,-0.35985 3.36965,-2.00044 4.13067,-3.49217 0.45413,-0.89016 0.52808,-1.41266 0.42574,-3.00749 -0.16396,-2.55494 -1.05978,-4.05519 -3.11414,-5.21537 -1.2482,-0.70491 -1.72162,-0.82182 -3.32804,-0.82182 -1.6225,0 -2.04581,0.10694 -3.16682,0.80001 -4.87603,3.01462 -3.99151,10.12495 1.46606,11.78507 0.98782,0.30048 2.27015,0.28324 3.58653,-0.0482 z m 13.34852,-16.0765 c -3.54724,-1.1637 -6.01541,-4.12202 -6.63168,-7.94869 -0.60325,-3.74586 1.77313,-8.0469 5.35951,-9.7002 1.42777,-0.65819 1.99496,-0.7696 3.92356,-0.77065 2.0067,-0.001 2.44507,0.0926 3.98798,0.85215 3.1083,1.53021 4.99936,4.43882 5.20793,8.01017 0.2305,3.9475 -1.46653,7.02107 -4.81505,8.72068 -1.56691,0.79534 -2.0742,0.91729 -4.08008,0.9809 -1.2599,0.04 -2.58837,-0.025 -2.95217,-0.14436 z m 4.90318,-3.06139 c 2.58246,-1.07902 4.09445,-3.32831 4.09016,-6.08476 -0.006,-3.90018 -3.67823,-6.93883 -7.50784,-6.21256 -3.14206,0.59588 -5.25581,3.08869 -5.25581,6.19836 0,2.55777 1.50815,4.86857 3.9026,5.9796 1.27765,0.59283 3.50438,0.64855 4.77089,0.11936 z m -91.42193,-0.675 c -0.69392,-0.69392 -0.67109,-1.45809 0.0589,-1.96937 0.51096,-0.3579 2.14082,-0.41188 12.43542,-0.41188 11.49461,0 11.86314,0.0157 12.37654,0.52917 0.29104,0.29104 0.52917,0.70776 0.52917,0.92604 0,0.21828 -0.23813,0.635 -0.52917,0.92604 -0.51347,0.51349 -0.88193,0.52917 -12.43541,0.52917 -11.55349,0 -11.92194,-0.0157 -12.43542,-0.52917 z m 46.36021,-11.56268 c 1.56451,-0.72975 3.47726,-2.47486 4.35586,-3.9741 0.61783,-1.05427 2.18967,-4.97089 5.28558,-13.17051 0.65935,-1.74625 2.43761,-6.34407 3.95169,-10.21738 1.5141,-3.87331 2.75291,-7.17879 2.75291,-7.34551 0,-0.22677 -12.66473,-0.30045 -50.27083,-0.29246 -27.64899,0.006 -50.27086,0.0583 -50.27086,0.11645 0,0.0582 1.08315,2.88261 2.40699,6.27651 4.06821,10.42951 5.52328,14.20639 7.16814,18.60614 1.8205,4.86952 2.99165,7.13036 4.2335,8.17258 1.10508,0.92745 3.09025,1.95095 4.38039,2.25841 0.56089,0.13367 14.87204,0.21835 32.87559,0.19453 l 31.88229,-0.0422 z M 163.90423,180.34636 c 0.13825,-0.12621 2.15636,-1.21457 4.48469,-2.41859 2.32833,-1.20401 7.38849,-3.88538 11.24479,-5.95859 3.8563,-2.07322 7.8042,-4.16017 8.77308,-4.63768 l 1.76162,-0.86819 -1.62398,-2.09511 c -0.89321,-1.15231 -1.83618,-2.20866 -2.0955,-2.34744 -0.69385,-0.37133 -1.96072,0.26758 -9.11379,4.59635 -3.46522,2.097 -7.7829,4.70609 -9.59487,5.79797 -1.81198,1.09188 -3.53145,2.30261 -3.82106,2.69052 -0.4072,0.54538 -0.5524,1.24544 -0.64048,3.08775 -0.10803,2.25967 0.0212,2.70465 0.6255,2.15301 z m 180.8295,-2.03263 c 0,-1.48965 -0.13505,-2.52323 -0.39545,-3.02682 -0.29792,-0.57611 -2.33714,-1.91865 -8.26823,-5.44347 -4.33004,-2.57331 -8.58716,-5.12908 -9.46028,-5.67949 -3.21077,-2.02401 -4.3075,-2.5288 -4.81843,-2.21781 -0.51811,0.31535 -3.77839,4.10054 -3.77971,4.38825 0,0.0981 2.29113,1.37676 5.09241,2.84147 2.80128,1.4647 5.92667,3.11689 6.94531,3.67152 1.01865,0.55463 3.63802,1.94307 5.82084,3.08541 6.77359,3.54485 7.9294,4.16713 8.18885,4.40885 0.55094,0.5133 0.67469,0.14134 0.67469,-2.02791 z"
       id="path1" /></g></svg>
