<?xml version="1.0" encoding="UTF-8" standalone="no"?>
<!-- Created with Inkscape (http://www.inkscape.org/) -->

<svg
   width="2816"
   height="1536"
   viewBox="0 0 745.06667 406.40031"
   version="1.1"
   id="svg1"
   xml:space="preserve"
   xmlns="http://www.w3.org/2000/svg"
   xmlns:svg="http://www.w3.org/2000/svg"><defs
     id="defs1" /><g
     id="layer1"
     transform="translate(118.9082,-36.6468)"><path
       style="fill:#000000;stroke:#000000;stroke-width:1.5875;stroke-dasharray:none;stroke-opacity:1"
       d="m 224.45165,369.18716 c -3.24801,-1.33006 -9.13897,-3.60837 -17.4625,-6.75358 -3.05593,-1.15474 -6.38968,-2.4489 -7.40833,-2.87591 -1.01864,-0.427 -4.82864,-1.92729 -8.46667,-3.33397 -3.63802,-1.40668 -9.7102,-3.77087 -13.49374,-5.25376 -3.78355,-1.48289 -7.75054,-3.02926 -8.81555,-3.43636 -2.11553,-0.80869 -2.72023,-1.54991 -2.19853,-2.6949 0.34097,-0.74835 0.84222,-0.80725 11.01408,-1.29421 9.31185,-0.44578 17.63854,-0.87585 22.07421,-1.14012 l 3.02422,-0.18018 0.89432,-2.24896 c 0.49188,-1.23693 1.71127,-4.39208 2.70975,-7.01146 0.99848,-2.61937 2.90712,-7.56047 4.24142,-10.98021 1.33429,-3.41973 3.35554,-8.65848 4.49166,-11.64166 2.69119,-7.06644 3.61056,-9.43955 5.94513,-15.34583 3.26339,-8.25614 8.08074,-20.81578 8.08074,-21.06784 0,-0.13122 -0.47789,-0.44562 -1.06198,-0.69867 -1.13955,-0.49369 -4.99408,-2.91747 -6.24591,-3.92751 -1.81911,-1.46776 -5.37176,-5.29803 -6.67184,-7.19323 -2.88453,-4.20492 -5.198,-9.92376 -5.87029,-14.51124 -0.2201,-1.50192 -0.28515,-3.72721 -0.18948,-6.48229 0.1219,-3.51035 0.27603,-4.69201 0.94409,-7.23797 0.86599,-3.30026 1.07732,-3.84279 3.34966,-8.59896 0.83429,-1.74625 2.44175,-5.13953 3.57211,-7.54063 1.13037,-2.40109 3.33456,-7.04453 4.89821,-10.31875 1.56364,-3.27422 3.35022,-7.02468 3.97016,-8.33437 0.61995,-1.30969 1.80996,-3.81 2.64448,-5.55625 0.83452,-1.74625 2.55746,-5.37766 3.82876,-8.06979 1.27129,-2.69214 4.51656,-9.53823 7.2117,-15.21354 2.69515,-5.67532 5.3749,-11.33079 5.95502,-12.56771 1.8109,-3.86122 5.62176,-11.91652 6.97829,-14.75052 1.2658,-2.64449 1.32025,-2.71198 2.18773,-2.71198 0.51676,0 4.20288,1.31883 8.79498,3.1467 4.34794,1.73069 9.33153,3.71011 11.07463,4.39872 1.7431,0.68861 3.52904,1.41303 3.96875,1.60983 0.43971,0.1968 4.30822,1.73686 8.59669,3.42236 4.28846,1.68549 7.95566,3.19603 8.14931,3.35675 0.20596,0.17093 0.3191,0.68398 0.27258,1.23609 -0.0635,0.75371 -0.22391,0.99433 -0.7962,1.19436 -0.74256,0.25953 -2.23868,-0.31214 -30.88475,-11.8013 -4.28391,-1.71816 -7.93706,-3.12393 -8.11811,-3.12393 -0.18105,0 -0.41019,0.25524 -0.5092,0.5672 -0.099,0.31196 -1.28248,2.90157 -2.62993,5.75469 -1.34744,2.85312 -3.31418,7.03295 -4.37052,9.28853 -1.05634,2.25557 -2.69093,5.70838 -3.63242,7.67291 -0.94149,1.96453 -3.14405,6.60797 -4.89458,10.31875 -1.75053,3.71078 -4.11596,8.70524 -5.25652,11.09879 -1.14056,2.39355 -2.03803,4.38763 -1.99437,4.43129 0.0603,0.0603 49.86122,0.13874 56.93484,0.0896 l 1.33609,-0.009 0.85961,-2.84427 c 1.89315,-6.26409 3.26416,-10.56755 3.6685,-11.51506 0.46519,-1.09013 1.27739,-1.47621 2.13733,-1.01598 1.03121,0.55188 0.90652,1.33456 -1.37944,8.65858 -1.22115,3.91248 -3.11411,10.03064 -4.20657,13.5959 -1.09246,3.56526 -3.47301,11.30432 -5.2901,17.19791 -1.81709,5.8936 -4.51478,14.70422 -5.99485,19.57917 -1.48007,4.87495 -3.34613,11.00667 -4.14679,13.62604 -1.46595,4.79587 -2.84827,8.12496 -4.39198,10.57738 -4.81165,7.64405 -11.85999,12.77465 -20.96956,15.26408 -1.85528,0.50701 -2.78647,0.57856 -7.54063,0.57942 -5.01201,9.2e-4 -5.61486,-0.051 -7.9375,-0.68355 -1.38245,-0.3765 -2.69825,-0.75892 -2.92401,-0.84981 -0.45701,-0.184 -0.1759,-0.83742 -4.476,10.40428 -1.46876,3.83975 -2.89867,7.53069 -3.17757,8.20208 -0.5876,1.41448 -1.87168,4.72715 -11.03678,28.47279 -3.707,9.60437 -7.052,18.31216 -7.43333,19.35064 l -0.69333,1.88814 5.94082,6.19075 c 17.7515,18.49828 18.06424,18.84253 17.82577,19.62145 -0.48555,1.58589 -1.17581,1.5887 -5.00578,0.0203 z m -3.44314,-5.45442 c -0.40198,-0.47909 -3.30787,-3.54998 -6.45753,-6.8242 -5.22974,-5.43655 -10.443,-10.9259 -10.88218,-11.45849 -0.0969,-0.11754 -4.86637,0.0295 -10.59877,0.32685 -5.7324,0.2973 -12.00012,0.62016 -13.92827,0.71747 -1.92815,0.0973 -3.50573,0.25563 -3.50573,0.35183 0,0.0962 0.80367,0.45508 1.78594,0.79752 0.98226,0.34244 4.70297,1.78134 8.26823,3.19755 3.56526,1.4162 8.56588,3.37149 11.1125,4.34508 2.54661,0.97359 5.16599,1.99069 5.82083,2.26023 0.65484,0.26954 4.16719,1.63472 7.80521,3.03374 3.63802,1.39902 7.62661,2.9422 8.86354,3.42931 1.23693,0.4871 2.29354,0.84256 2.34803,0.78991 0.0545,-0.0527 -0.22983,-0.48771 -0.6318,-0.9668 z M 249.1902,273.1359 c 4.19597,-0.85613 8.77349,-2.85337 11.90625,-5.19489 2.27625,-1.70134 6.1152,-5.6967 7.47339,-7.77788 2.39289,-3.66666 3.38461,-6.26906 7.09302,-18.61292 0.89622,-2.98317 2.67844,-8.81724 3.96049,-12.96458 1.28205,-4.14734 3.3041,-10.75531 4.49343,-14.68438 1.18934,-3.92906 2.86615,-9.39871 3.72626,-12.15477 0.8601,-2.75606 1.56382,-5.16708 1.56382,-5.35781 0,-0.28392 -5.34491,-0.34679 -29.48321,-0.34679 h -29.48321 l -0.18152,0.59531 c -0.17618,0.57782 -2.76375,6.1099 -6.52814,13.95677 -1.01225,2.11006 -2.55909,5.38427 -3.43741,7.27604 -0.87831,1.89178 -2.48087,5.28451 -3.56123,7.53941 -3.44783,7.19624 -4.43628,10.45666 -4.75342,15.67926 -0.27275,4.49159 0.58527,9.23397 2.46285,13.61236 2.74387,6.39853 8.82971,12.77075 15.30588,16.0261 2.48305,1.24815 7.05781,2.4742 10.97608,2.94163 1.60085,0.19097 6.39916,-0.11101 8.46667,-0.53286 z m -10.98021,-6.36002 c -1.01865,-0.21767 -2.50693,-0.65445 -3.30729,-0.97061 -1.27745,-0.50463 -1.46486,-0.67346 -1.5342,-1.38212 -0.0543,-0.55459 0.0944,-0.96415 0.47485,-1.30848 0.50625,-0.45815 0.66081,-0.47091 1.79878,-0.14859 0.68472,0.19395 1.84025,0.51846 2.56786,0.72113 3.16226,0.88085 7.80852,0.68984 11.17978,-0.45961 5.60419,-1.91076 9.98125,-5.71492 12.59052,-10.94256 1.44642,-2.8979 2.08251,-3.43284 3.20636,-2.69647 0.89329,0.58531 0.86775,1.46948 -0.10162,3.51855 -2.68096,5.66701 -7.47394,10.17725 -13.249,12.46743 -4.08644,1.62054 -9.45099,2.0935 -13.62604,1.20133 z m 64.12462,-77.32526 -0.62462,-0.50585 0.0873,-8.02539 c 0.0549,-5.04876 0.18963,-8.14864 0.36313,-8.35769 0.47642,-0.57406 1.74297,-0.39843 2.20431,0.30567 0.36184,0.55223 0.40711,1.67559 0.33683,8.35809 l -0.0812,7.72012 -0.62462,0.50545 c -0.77466,0.62685 -0.88666,0.62683 -1.66117,-4e-4 z m -20.86525,-20.92541 c -0.63683,-0.63683 -0.66163,-1.01604 -0.11729,-1.79321 0.41019,-0.58562 0.44478,-0.58804 8.41375,-0.58804 5.8709,0 8.08643,0.0846 8.31937,0.3175 0.51703,0.51703 0.39237,2.00507 -0.19427,2.31903 -0.3191,0.17078 -3.40693,0.27389 -8.20208,0.27389 -7.33753,0 -7.71459,-0.0243 -8.21948,-0.52917 z m 26.72292,0 c -0.65062,-0.65061 -0.66674,-1.09639 -0.0661,-1.8294 0.4569,-0.55763 0.56968,-0.56414 8.52278,-0.49233 l 8.05976,0.0728 0.40028,0.71334 c 0.37522,0.66869 0.36054,0.75565 -0.23453,1.38906 l -0.6348,0.67572 h -7.75909 c -7.40631,0 -7.78315,-0.0241 -8.28825,-0.52917 z m 26.36705,-3.39427 c -0.62243,-0.68777 -0.6401,-5.89072 -0.0221,-6.5087 0.55756,-0.55757 1.51937,-0.52573 2.05676,0.0681 0.67309,0.74376 0.63677,5.86872 -0.046,6.48659 -0.63478,0.57447 -1.44413,0.55576 -1.98868,-0.046 z m -32.44563,-2.55061 c -0.23348,-0.28133 -0.34614,-2.58842 -0.40804,-8.35561 -0.0812,-7.56567 -0.0599,-7.99256 0.42244,-8.47491 0.61601,-0.61601 1.38398,-0.65241 1.94424,-0.0922 0.51088,0.51089 0.46253,-0.40442 0.46422,8.78749 10e-4,5.69818 -0.0838,7.85068 -0.32049,8.13594 -0.41548,0.50062 -1.68665,0.50017 -2.10237,-7.5e-4 z m 25.8924,-4.59476 c -0.64465,-0.19806 -1.29299,-0.90388 -1.29299,-1.40761 0,-0.26849 0.23813,-0.72629 0.52917,-1.01733 0.45723,-0.45724 0.88194,-0.52917 3.12443,-0.52917 2.80088,0 3.3509,0.2026 3.62295,1.3345 0.27873,1.15971 -0.47374,1.54454 -3.21582,1.64468 -1.32044,0.0482 -2.56592,0.0369 -2.76774,-0.0251 z m 9.34326,-0.36119 c -0.17462,-0.17462 -0.3175,-0.64412 -0.3175,-1.04333 0,-1.20824 0.81787,-1.55016 3.69689,-1.54553 2.70988,0.004 2.93288,0.0698 3.42606,1.00587 0.2651,0.50318 0.2474,0.72843 -0.0988,1.25677 -0.40552,0.61891 -0.53676,0.64372 -3.40547,0.64372 -1.96787,0 -3.09179,-0.10809 -3.30119,-0.3175 z m -2.79003,-3.07677 c -0.62243,-0.68777 -0.6401,-5.89072 -0.0221,-6.50871 0.55756,-0.55756 1.51937,-0.52572 2.05676,0.0681 0.67309,0.74376 0.63677,5.86873 -0.046,6.4866 -0.63478,0.57446 -1.44413,0.55575 -1.98868,-0.046 z m -16.05502,-13.7375 c -0.55015,-0.69701 -0.57037,-0.92896 -0.48095,-5.51712 0.10186,-5.22639 0.2227,-5.66153 1.5723,-5.66153 1.44136,0 1.60458,0.67146 1.51164,6.21841 -0.0759,4.52907 -0.12524,4.96878 -0.59632,5.31279 -0.76939,0.56185 -1.36794,0.45669 -2.00667,-0.35255 z m -34.15381,-0.24143 c -0.72798,-0.19457 -1.02906,-1.34117 -1.02906,-3.919 0,-2.33535 0.0392,-2.51276 0.66461,-3.00467 0.67781,-0.53316 1.48618,-0.509 1.95718,0.0585 0.14182,0.17089 0.28693,1.60346 0.32247,3.18349 0.0611,2.71635 0.0315,2.89958 -0.5431,3.36487 -0.33423,0.27065 -0.6838,0.47827 -0.77682,0.46139 -0.093,-0.0169 -0.3609,-0.082 -0.59528,-0.14459 z m -7.70978,-7.78341 c -0.58103,-0.33842 -0.60903,-1.64709 -0.0472,-2.20887 0.32401,-0.32401 1.01566,-0.41577 3.13399,-0.41577 2.29735,0 2.78602,0.0749 3.1561,0.48386 0.50279,0.55557 0.5564,1.18156 0.16399,1.91478 -0.24508,0.45794 -0.57214,0.51093 -3.10885,0.50373 -1.55923,-0.004 -3.04332,-0.1294 -3.29798,-0.27773 z m 9.94371,-0.40617 c -0.40651,-0.62041 -0.413,-0.76401 -0.0627,-1.38906 0.37989,-0.6779 0.46979,-0.6992 3.26044,-0.77257 3.1193,-0.082 3.85804,0.18575 3.85804,1.39837 0,1.17235 -0.73571,1.45521 -3.78504,1.45521 -2.7463,0 -2.82877,-0.0175 -3.27072,-0.69195 z m -2.6171,-2.59365 c -0.43765,-0.3197 -0.52708,-0.77085 -0.60479,-3.05092 -0.0727,-2.13166 -0.004,-2.80857 0.33683,-3.32898 0.48605,-0.74182 1.34167,-0.83655 2.13562,-0.23646 0.47338,0.3578 0.52633,0.69179 0.50227,3.16852 -0.0221,2.27145 -0.11256,2.86322 -0.50402,3.29579 -0.5625,0.62155 -1.1569,0.66999 -1.86591,0.15205 z m 21.75241,-1.96076 c -0.57446,-0.63477 -0.55575,-1.44412 0.046,-1.98868 0.41356,-0.37426 1.19558,-0.43788 5.38295,-0.43788 4.41014,0 4.9428,0.0483 5.33698,0.48386 0.50278,0.55557 0.5564,1.18156 0.16398,1.91479 -0.25627,0.47884 -0.60256,0.51177 -5.38295,0.51177 -4.61355,0 -5.15152,-0.0469 -5.54694,-0.48386 z m 16.90733,-0.10418 c -0.54221,-0.77412 -0.52028,-1.34851 0.072,-1.8845 0.41372,-0.37441 1.19712,-0.43788 5.40506,-0.43788 5.39125,0 5.75275,0.0976 5.75275,1.55348 0,1.29699 -0.25299,1.35694 -5.72646,1.35694 -4.96142,0 -5.10197,-0.015 -5.50333,-0.58804 z m -4.14979,-4.08319 c -0.4929,-0.5944 -0.53005,-10.48171 -0.0412,-10.97025 0.4155,-0.41525 1.85068,-0.41554 2.2666,-4.6e-4 0.22324,0.22279 0.34727,1.82416 0.40464,5.2246 0.0696,4.12761 0.0164,5.00465 -0.33683,5.54367 -0.49746,0.75922 -1.74049,0.86895 -2.29319,0.20244 z"
       id="path3" /></g></svg>
