<?xml version="1.0" encoding="UTF-8" standalone="no"?>
<!-- Created with Inkscape (http://www.inkscape.org/) -->

<svg
   version="1.1"
   id="svg1"
   width="2816"
   height="1504"
   viewBox="0 0 2816 1504"
   sodipodi:docname="tech.png"
   inkscape:export-filename="tech.svg"
   inkscape:export-xdpi="96"
   inkscape:export-ydpi="96"
   xmlns:inkscape="http://www.inkscape.org/namespaces/inkscape"
   xmlns:sodipodi="http://sodipodi.sourceforge.net/DTD/sodipodi-0.dtd"
   xmlns="http://www.w3.org/2000/svg"
   xmlns:svg="http://www.w3.org/2000/svg">
  <defs
     id="defs1" />
  <sodipodi:namedview
     id="namedview1"
     pagecolor="#ffffff"
     bordercolor="#000000"
     borderopacity="0.25"
     inkscape:showpageshadow="2"
     inkscape:pageopacity="0.0"
     inkscape:pagecheckerboard="0"
     inkscape:deskcolor="#d1d1d1"
     inkscape:export-bgcolor="#ffffffff">
    <inkscape:page
       x="0"
       y="0"
       width="2816"
       height="1504"
       id="page2"
       margin="0"
       bleed="0" />
  </sodipodi:namedview>
  <g
     inkscape:groupmode="layer"
     inkscape:label="Image"
     id="g1">
    <path
       style="fill:#000000;stroke:#000000;stroke-width:4;stroke-dasharray:none;stroke-opacity:1"
       d="m 1312.2439,1118.5829 c -1.7846,-2.2687 -1.8964,-4.4325 -1.8226,-35.25 l 0.079,-32.8329 2.8973,-5 c 1.6448,-2.8385 12.0988,-14.2946 24.1818,-26.5 11.7064,-11.825 22.2187,-22.70053 23.3606,-24.16785 2.0552,-2.64084 2.0736,-3.26868 1.8183,-62 L 1362.5,873.5 1348.25,873.22254 1334,872.94509 v 48.78406 c 0,28.04547 -0.4065,50.20156 -0.9563,52.11849 -0.526,1.83394 -2.9397,5.65597 -5.364,8.4934 -6.8436,8.01017 -30.5545,31.30006 -35.0097,34.38816 l -3.9974,2.7708 -57.4811,0.274 c -53.2112,0.2536 -57.6224,0.146 -59.3836,-1.4479 -2.5381,-2.2969 -1.9841,-6.4445 1.0626,-7.9552 1.7512,-0.8684 15.8602,-1.0878 54,-0.8398 28.3962,0.1847 53.4398,0.1049 55.6524,-0.1772 3.5953,-0.4584 5.7853,-2.2315 20.605,-16.68339 9.1202,-8.89378 17.3141,-17.31635 18.2087,-18.71682 1.4426,-2.25844 1.6307,-7.96771 1.6635,-50.5 0.02,-26.37453 0.029,-48.45837 0.018,-49.0752 -0.011,-0.6907 -2.9956,-1.29633 -7.7685,-1.5766 -4.4644,-0.26214 -9.3294,-1.20786 -11.4754,-2.23074 -4.1557,-1.98078 -12.7746,-9.20739 -12.7746,-10.711 0,-0.53343 -0.8735,-2.88739 -1.9412,-5.23101 -1.0885,-2.38936 -2.0309,-6.86772 -2.1454,-10.19513 -0.1123,-3.26371 -0.6439,-6.49651 -1.1813,-7.18401 -0.7429,-0.95053 -8.1666,-1.25 -30.9865,-1.25 -35.2003,0 -31.7849,-1.00358 -44.9283,13.20151 -8.5416,9.23153 -17.2027,18.25299 -39.649,41.29849 -6.4284,6.6 -18.2086,18.91519 -26.1781,27.36709 -17.3845,18.43653 -27.6093,28.48885 -32.5673,32.01794 l -3.6738,2.61497 -38.386,0.28403 -38.3859,0.28403 -2.4785,-2.4785 c -1.3632,-1.36317 -2.2333,-3.11754 -1.9336,-3.89858 1.2832,-3.34298 5.194,-3.69098 41.4795,-3.69098 h 35.95 l 4.1547,-3.75 c 2.2851,-2.0625 18.5887,-18.825 36.2303,-37.25 40.5159,-42.31511 70.5387,-72.83776 73.1208,-74.33797 1.3603,-0.79033 12.7157,-1.32197 35.5,-1.66203 l 33.5,-0.5 v -14 -14 l -45.3509,-0.26026 -45.3508,-0.26026 -15.9634,16.26026 c -8.7799,8.94314 -23.7554,24.36026 -33.2789,34.26026 -29.0471,30.1954 -39.2926,40.30819 -42.7479,42.19428 -3.0057,1.64063 -6.3252,1.80138 -36.3081,1.75825 -18.15,-0.0261 -34.2245,-0.36892 -35.7211,-0.7618 -1.4967,-0.39289 -3.2293,-1.66386 -3.8504,-2.82437 -0.9337,-1.74458 -0.7609,-2.47862 0.9977,-4.23819 2.0742,-2.07534 2.9708,-2.13532 36.1212,-2.41609 l 33.9942,-0.28791 13.821,-13.96171 c 7.6016,-7.67893 24.5797,-25.07186 37.7292,-38.65095 35.0479,-36.19283 36.5915,-37.69607 40.7214,-39.65582 3.4509,-1.63756 7.6634,-1.8 48.483,-1.86959 27.4717,-0.0468 45.1856,-0.45297 45.9538,-1.0536 0.8842,-0.69133 1.25,-4.72904 1.25,-13.79593 0,-9.16209 -0.3566,-13.04642 -1.25,-13.61742 -1.8545,-1.18525 -111.5987,-0.45558 -115.418,0.76739 -2.0569,0.65864 -6.9669,5.11118 -14,12.69553 -32.5083,35.05648 -40.9395,43.274 -47.0499,45.85743 -2.5239,1.06708 -11.4204,1.3605 -41.25,1.3605 -36.6988,0 -38.1022,-0.0701 -40.0321,-2 -2.5405,-2.54045 -2.5118,-3.44525 0.1886,-5.96104 2.1204,-1.97552 3.3359,-2.03896 39.0657,-2.03896 24.6014,0 37.6043,-0.36268 39.0614,-1.08951 2.0444,-1.01974 5.8625,-4.8299 28.9707,-28.91049 23.8085,-24.81035 27.2882,-28.25215 30.1485,-29.81995 2.7719,-1.51933 8.6616,-1.68005 61.5651,-1.68005 37.8435,0 58.7594,-0.3531 59.2347,-1 0.8835,-1.20254 1.0215,-24.66878 0.1583,-26.91821 -0.5448,-1.41974 -7.208,-1.58179 -65.0398,-1.58179 -63.9022,0 -64.4675,-0.0177 -68.6355,-2.14403 -2.4224,-1.2358 -11.2343,-9.25946 -20.802,-18.94124 -9.3421,-9.4535 -17.6521,-17.03435 -19.0075,-17.33962 -1.3245,-0.29832 -20.5087,-0.66227 -42.6315,-0.80876 l -40.2232,-0.26635 -2.2701,-2.27112 c -2.1293,-2.13025 -2.175,-2.44037 -0.7377,-5 l 1.5324,-2.72888 h 43.461 c 36.7808,0 43.8705,0.23055 46.1258,1.5 1.4657,0.825 10.8157,9.48207 20.7778,19.23793 9.9622,9.75587 19.1129,17.98011 20.3351,18.27609 1.2222,0.29598 30.3472,0.41391 64.7222,0.26206 l 62.5,-0.27608 0.2784,-13.7705 c 0.2201,-10.89063 -0.01,-13.87979 -1.0834,-14.29305 -0.7489,-0.28739 -25.2295,-0.61566 -54.4012,-0.72949 l -53.0394,-0.20696 -3.6589,-2.60311 c -7.3047,-5.19696 -34.8176,-33.17554 -36.7009,-37.3221 -1.7291,-3.80702 -1.8521,-7.7337 -1.8726,-59.75336 -0.019,-49.3027 0.1579,-55.85852 1.5494,-57.25 2.3105,-2.31046 5.009,-1.92035 7.356,1.06343 2.0389,2.59203 2.0726,3.51618 2.0726,56.85165 v 54.2168 l 5.75,6.47399 c 6.0821,6.84786 22.9609,23.21902 26.5953,25.79531 1.8663,1.32296 9.1612,1.52739 54.5049,1.52739 h 52.3501 l 0.2873,-7.8374 c 0.158,-4.31058 0.7879,-8.33808 1.3998,-8.95 0.6119,-0.61193 1.1126,-1.74534 1.1126,-2.5187 0,-1.54692 5.3412,-8.70917 8.4991,-11.39688 1.1005,-0.93664 3.3509,-2.21956 5.0009,-2.85092 1.65,-0.63137 3.9,-1.54573 5,-2.03192 1.1,-0.4862 4.925,-1.00328 8.5,-1.14908 l 6.5,-0.2651 0.2628,-31 0.2628,-31 -33.0394,-33 c -26.7596,-26.72766 -33.5332,-34.03602 -35.6371,-38.45069 l -2.5976,-5.4507 -0.5188,-47.60074 c -0.3927,-36.02612 -0.2214,-48.50196 0.7043,-51.30699 1.9544,-5.92192 6.5288,-7.1558 8.8525,-2.38784 0.692,1.41989 1.2762,19.85378 1.6515,52.11683 l 0.5808,49.91987 2.3656,3.08013 c 1.3012,1.69407 16.9847,17.70513 34.8523,35.58013 29.5605,29.57263 32.543,32.86029 33.1125,36.5 0.3442,2.2 0.6307,17.3875 0.6368,33.75 L 1334,631 h 14.5 14.5 v -44.9652 -44.96521 l -3.0697,-3.49619 c -4.0603,-4.62439 -9.5384,-10.03045 -28.7731,-28.39433 -10.5545,-10.07663 -16.7632,-16.79937 -18.1383,-19.64007 -2.0163,-4.16506 -2.0985,-5.93729 -2.3049,-49.67907 -0.1177,-24.94796 0.1288,-46.58444 0.5478,-48.08107 1.0923,-3.90175 3.9905,-5.20486 6.6987,-3.01192 2.134,1.72803 2.1473,2.00235 2.3429,48.28521 l 0.1966,46.54731 25.75,25.66148 c 14.1625,14.11381 25.8471,25.79143 25.9658,25.95027 0.1187,0.15883 0.4562,21.66379 0.75,47.78879 l 0.5342,47.5 h 14.2428 14.2428 l 0.4209,-56.27579 0.4209,-56.27579 2.3363,-3.88092 c 1.285,-2.1345 11.1593,-12.88142 21.9429,-23.88203 14.8257,-15.12407 19.7634,-20.78558 20.25,-23.21829 0.3539,-1.76945 0.6434,-19.58593 0.6434,-39.59218 0,-35.04167 0.073,-36.44831 2,-38.375 2.682,-2.68198 4.614,-2.51873 6.6315,0.56035 1.4574,2.22424 1.6986,6.19523 1.8376,30.25 0.088,15.22931 -0.094,33.13125 -0.4046,39.78209 -0.705,15.10291 -0.1458,14.21604 -25.1723,39.91656 -17.561,18.03393 -18.6362,19.35876 -19.112,23.54996 -0.2773,2.44257 -0.4538,27.61604 -0.3922,55.94104 l 0.112,51.5 14.75,0.27673 14.75,0.27674 v -53.6587 c 0,-53.17369 0.02,-53.6914 2.1568,-57.27674 1.1862,-1.98991 13.7819,-15.32434 27.9905,-29.63206 14.2086,-14.30772 26.5781,-27.07658 27.4877,-28.37525 1.4303,-2.04204 1.7024,-6.50089 2.0127,-32.98597 0.3941,-33.62854 0.7426,-38.37216 2.9832,-40.6128 1.9971,-1.99713 2.9726,-1.90846 5.3691,0.48805 1.9247,1.92474 2,3.33333 2,37.4349 0,19.4892 -0.3986,36.4767 -0.8859,37.75 -0.4872,1.27331 -9.3747,11.03228 -19.75,21.68662 -34.5945,35.52506 -38.4176,39.61585 -38.9508,41.67898 -0.2915,1.12777 -0.3912,24.75277 -0.2216,52.5 L 1453.5,630.5 h 14.3055 14.3055 l -0.082,-48.7184 c -0.067,-39.58943 0.1796,-49.34494 1.3149,-52.06207 0.7912,-1.89347 9.6718,-11.59057 20.4756,-22.35802 15.0616,-15.01094 19.9184,-19.26597 23.0675,-20.20948 5.4785,-1.6414 114.79,-1.66508 116.7658,-0.0253 2.0653,1.71405 1.6027,5.58094 -0.8752,7.31657 -1.9446,1.36203 -8.9395,1.5567 -55.9349,1.5567 -35.6358,0 -54.6569,0.35908 -56.5187,1.06697 -3.2701,1.24326 -35.0539,33.32387 -36.4083,36.74813 -0.5087,1.28641 -0.9156,23.39219 -0.9156,49.75 V 631 h 6.0621 c 8.7932,0 15.2391,2.44507 20.8019,7.89047 6.0056,5.879 8.8245,11.96688 9.8335,21.23702 l 0.8025,7.37251 31.5,0.27947 31.5,0.27948 18.2862,-18.77948 c 10.0574,-10.32871 26.0324,-26.87139 35.5,-36.76152 36.8404,-38.48463 55.0991,-56.29868 58.7357,-57.30537 5.3467,-1.48009 77.133,-1.55476 80.3619,-0.0836 3.2432,1.47772 3.665,6.23937 0.6935,7.82967 -1.1969,0.64054 -16.4175,1.12572 -40.317,1.28518 l -38.3942,0.25616 -4.0307,4 c -2.2168,2.2 -7.7986,8.05 -12.4038,13 -9.1894,9.87728 -49.0908,51.39753 -71.9316,74.85004 -7.975,8.18857 -15.0506,15.4656 -15.7235,16.17118 -0.6729,0.70558 -2.9229,2.33945 -5,3.63083 -3.7156,2.31011 -4.3083,2.35601 -36.7765,2.84795 l -33,0.5 -0.2498,12 c -0.1374,6.6 -0.016,13.0125 0.269,14.25 l 0.5189,2.25 44.731,0.0226 44.7309,0.0226 21,-21.31875 c 11.55,-11.72531 31.125,-31.80193 43.5,-44.61472 12.375,-12.81278 24.3067,-24.36028 26.5149,-25.66111 4.0004,-2.35651 4.1389,-2.36545 38,-2.45229 18.6918,-0.0479 34.9872,-0.0672 36.212,-0.0427 2.5996,0.0519 5.5884,4.05914 4.7185,6.32621 -0.33,0.85997 -1.3527,1.93411 -2.2727,2.38698 -0.92,0.45286 -17.3563,1.05016 -36.5252,1.32732 L 1715.795,624.5 1703.7998,637 c -6.5974,6.875 -19.9388,20.60647 -29.6475,30.51439 -9.7088,9.90791 -23.7273,24.35587 -31.1523,32.10656 -7.425,7.7507 -15.075,14.94423 -17,15.98562 -3.25,1.75818 -6.8215,1.92915 -50,2.39343 l -46.5,0.5 -0.2798,13.36163 c -0.1787,8.53552 0.1118,13.83346 0.8044,14.66796 0.8181,0.98576 4.3224,1.22775 14.2798,0.98609 7.2576,-0.17614 33.0902,-0.36423 57.4058,-0.41797 l 44.2102,-0.0977 4.7898,-4.78758 c 2.6344,-2.63318 11.7648,-12.19173 20.2898,-21.24123 8.525,-9.0495 18.156,-19.26712 21.4022,-22.70582 3.2462,-3.4387 7.9947,-7.59497 10.5523,-9.23617 l 4.6501,-2.98398 37.9477,-0.0453 c 20.8712,-0.0249 38.5102,-0.0351 39.1977,-0.0226 2.195,0.0399 5.1302,3.76493 4.591,5.8266 -1.0206,3.90277 -3.9936,4.19611 -42.5273,4.19611 h -37.0921 l -8.9753,9.25 c -4.9364,5.0875 -13.7613,14.40926 -19.6108,20.71502 -16.9265,18.24674 -26.5498,27.67776 -30.2228,29.6191 -3.1575,1.66894 -7.7433,1.82361 -61.3345,2.06877 -31.857,0.14574 -58.5195,0.49434 -59.25,0.77466 -1.8473,0.70889 -1.9201,26.07133 -0.078,27.26343 0.6875,0.44496 30.05,0.83285 65.25,0.86197 58.5001,0.0484 64.2784,0.20053 67.2393,1.77016 1.7817,0.94447 10.6702,8.98984 19.7524,17.8786 9.0821,8.88876 17.7494,16.97672 19.2606,17.97325 2.5378,1.67342 5.8266,1.81237 43.0432,1.81845 l 40.2954,0.007 2.4546,2.45455 c 3.2163,3.21637 3.1005,4.17519 -0.7955,6.58548 -3.1377,1.94115 -4.667,2.00112 -44.25,1.7353 -37.2953,-0.25045 -41.2983,-0.43816 -44.301,-2.07738 -1.8155,-0.99112 -11.5829,-9.88194 -21.7052,-19.75736 l -18.4042,-17.95532 -64.2948,0.25737 L 1529.5,797.5 V 809 c 0,6.325 0.1636,12.7375 0.3635,14.25 l 0.3635,2.75 h 53.8099 53.8099 l 4.6598,3.55691 c 8.0241,6.12496 31.5583,29.73085 34.3385,34.44309 l 2.6549,4.5 0.2814,56.64719 c 0.2527,50.87416 0.118,56.81053 -1.3214,58.25 -2.0359,2.0359 -4.8711,2.04881 -6.8886,0.0314 -1.3898,-1.38979 -1.5714,-7.81635 -1.5714,-55.59887 0,-46.6293 -0.2114,-54.47284 -1.5435,-57.28009 -1.2942,-2.72734 -15.5052,-17.30263 -29.5588,-30.31662 l -3.528,-3.26701 -52.1151,-0.50035 c -38.4361,-0.36902 -52.3002,-0.20085 -52.8203,0.6407 -0.3879,0.62758 -0.8039,3.98477 -0.9246,7.46043 -0.159,4.5825 -0.9966,7.9081 -3.0473,12.09967 -5.1753,10.57783 -12.1788,14.98873 -25.42,16.00982 L 1493,873.29643 v 28.10839 c 0,15.45961 0.4239,29.58647 0.942,31.39301 0.6919,2.4125 11.978,14.3363 42.5056,44.9074 35.4365,35.48697 41.7238,42.21747 42.6499,45.65687 1.0967,4.0728 1.3871,93.0448 0.3094,94.7886 -1.506,2.4366 -4.2568,2.7552 -6.7637,0.7833 l -2.5705,-2.022 -0.052,-44.5433 -0.052,-44.5434 -2.7069,-3.6627 c -1.4888,-2.0144 -20.1638,-21.2126 -41.5,-42.6626 -21.3362,-21.45 -39.6653,-40.43931 -40.7313,-42.19847 -2.4929,-4.11388 -2.8689,-9.27221 -2.9574,-40.57899 l -0.073,-25.77745 -14.25,0.27745 -14.25,0.27746 -0.1973,41.5 c -0.1088,22.90724 0.2165,43.06806 0.7263,45 0.7213,2.73376 7.8416,10.39616 32.524,35 34.9116,34.8005 39.1386,39.4173 40.9719,44.75 1.5481,4.5031 0.8376,76.9755 -0.7744,79 -1.3837,1.7376 -5.2952,1.5625 -7.1791,-0.3214 -1.3688,-1.3688 -1.5721,-6.1078 -1.577,-36.75 0,-21.4195 -0.4151,-36.6532 -1.0525,-38.9487 -0.8508,-3.0636 -7.4196,-10.0918 -35.049,-37.5 -18.7011,-18.55146 -34.9899,-35.3049 -36.1974,-37.2299 -2.1564,-3.43763 -2.2044,-4.31079 -2.6955,-49 l -0.5,-45.5 -14.751,-0.27674 -14.751,-0.27674 0.063,54.77674 c 0.035,30.12721 0.3109,56.00404 0.6133,57.50408 0.368,1.82584 7.0749,9.26308 20.2906,22.49996 10.8574,10.875 20.9369,21.6842 22.3988,24.0204 l 2.658,4.2477 -0.2611,41.1306 -0.2611,41.1306 -2.204,1.4631 c -2.0208,1.3415 -2.4157,1.2515 -4.75,-1.0828 l -2.546,-2.546 v -39.0106 -39.0107 l -3.25,-3.7848 c -1.7875,-2.0816 -3.925,-4.2954 -4.75,-4.9196 -3.8972,-2.9483 -34.5449,-34.53783 -35.9291,-37.03323 -1.3601,-2.45194 -1.638,-10.61519 -2.0709,-60.83197 l -0.5,-58 h -14.5 -14.5 l -0.2272,59.5 c -0.125,32.725 -0.4997,61.05249 -0.8328,62.94999 -0.4991,2.84313 -5.0766,7.96101 -26.0228,29.09491 l -25.4172,25.645 -0.1214,23.4051 c -0.067,12.8727 -0.2202,24.98 -0.341,26.905 -0.1209,1.925 -0.2913,6.5054 -0.3787,10.1786 -0.222,9.331 -3.7808,12.6601 -7.915,7.4043 z m 196.3005,-257.96618 c 4.427,-2.82081 8.6018,-7.63961 9.5832,-11.0615 0.4798,-1.67311 0.8724,-45.83671 0.8724,-98.14133 v -95.09932 l -2.3268,-4.40729 c -1.2797,-2.424 -4.0924,-5.65114 -6.2505,-7.1714 l -3.9238,-2.76413 -98.4994,0.0176 -98.4995,0.0176 -4,2.83826 c -2.2,1.56105 -5.0125,4.80484 -6.25,7.20842 l -2.25,4.37015 v 94.63889 c 0,69.76745 0.3081,95.53221 1.1723,98.03811 2.4896,7.21863 7.8587,11.76085 15.3277,12.96705 2.2,0.35528 46.32,0.59787 98.0444,0.53907 90.288,-0.10263 94.1624,-0.18212 97,-1.99018 z M 1344.5,840.98919 c -15.6714,-0.5718 -18.2206,-1.44923 -22.5457,-7.76022 l -2.4543,-3.58117 -0.3131,-74.5739 c -0.2169,-51.64652 0.025,-76.14166 0.788,-79.67321 1.0922,-5.05812 3.6224,-8.27832 8.7615,-11.15069 2.875,-1.60689 150.6734,-1.81942 156.414,-0.22492 2.0077,0.55767 4.9968,2.39104 6.6424,4.07418 5.7374,5.86832 5.7204,5.60796 5.5645,85.64834 l -0.1428,73.24759 -2.3572,4.75241 c -1.7964,3.62158 -3.4281,5.28159 -6.8573,6.97636 -4.4864,2.21726 -4.6883,2.22479 -67,2.5 -34.375,0.15182 -68.8,0.0462 -76.5,-0.23477 z m 139.854,-12.44144 2.646,-2.45225 v -73.0007 c 0,-51.37821 -0.3289,-73.72258 -1.1105,-75.43788 -0.6107,-1.34046 -2.0732,-2.94841 -3.25,-3.57323 -1.5553,-0.82582 -22.3025,-1.06062 -75.9781,-0.85986 l -73.8387,0.27617 -1.9113,2.36078 C 1329.0682,678.13736 1329,680.851 1329,751.93647 v 73.7149 l 2.25,2.04704 c 1.2375,1.12586 2.925,2.29378 3.75,2.59536 0.825,0.30159 34.1718,0.58386 74.104,0.62728 L 1481.708,831 Z"
       id="path1" />
  </g>
</svg>
